<?xml version="1.0" standalone="no"?>
<!DOCTYPE svg PUBLIC "-//W3C//DTD SVG 20010904//EN"
 "http://www.w3.org/TR/2001/REC-SVG-20010904/DTD/svg10.dtd">
<svg version="1.0" xmlns="http://www.w3.org/2000/svg"
 width="512.000000pt" height="512.000000pt" viewBox="0 0 512.000000 512.000000"
 preserveAspectRatio="xMidYMid meet">

<g transform="translate(0.000000,512.000000) scale(0.100000,-0.100000)"
fill="#000000" stroke="none">
<path d="M2405 4633 c-46 -10 -437 -172 -1159 -481 -1014 -434 -1093 -470
-1142 -514 -72 -66 -98 -129 -99 -233 0 -93 21 -148 81 -215 39 -43 105 -80
261 -145 l93 -39 0 -587 0 -587 -29 -12 c-114 -47 -164 -200 -104 -319 21 -43
24 -57 15 -70 -28 -39 -50 -89 -56 -126 -3 -22 -20 -188 -36 -368 -30 -326
-30 -329 -11 -371 10 -24 34 -54 52 -67 33 -23 42 -24 224 -27 117 -2 204 1
227 7 45 14 95 69 103 115 8 38 -50 693 -65 746 -5 18 -21 50 -34 70 l-24 37
25 52 c63 127 18 253 -121 336 -15 9 -16 55 -14 557 l3 547 205 -88 205 -88 6
-344 c7 -381 9 -395 75 -520 129 -239 457 -444 872 -543 212 -51 307 -61 602
-61 215 0 299 4 387 18 251 40 439 97 630 192 218 107 376 244 457 394 66 125
68 139 75 520 l6 344 400 172 c472 202 471 202 519 256 60 66 81 121 81 214
-1 104 -27 167 -99 233 -49 44 -128 80 -1142 514 -811 347 -1109 470 -1166
482 -95 20 -210 19 -303 -1z m270 -148 c46 -10 414 -163 1100 -456 566 -243
1054 -453 1083 -467 85 -41 122 -115 101 -197 -22 -85 9 -69 -1133 -559 -584
-250 -1087 -462 -1119 -471 -81 -23 -224 -22 -305 3 -93 30 -1643 696 -1634
703 4 4 327 62 717 129 l711 123 47 -36 c129 -98 420 -117 578 -36 114 58 170
172 125 257 -54 102 -198 163 -386 163 -114 0 -189 -15 -268 -55 -52 -26 -122
-96 -122 -121 0 -9 -6 -18 -12 -20 -7 -3 -386 -70 -842 -149 l-829 -144 -125
54 c-141 61 -185 95 -201 158 -21 84 16 157 101 198 179 87 2125 911 2179 923
84 18 149 18 234 0z m26 -1015 c75 -24 113 -49 104 -71 -3 -9 -25 -25 -48 -37
-113 -56 -281 -56 -394 0 -52 26 -61 46 -31 70 72 56 253 75 369 38z m-946
-1028 c308 -132 589 -248 625 -258 89 -24 271 -24 360 0 36 10 317 126 625
258 308 132 566 242 573 245 11 5 13 -23 10 -143 -3 -139 -5 -153 -31 -209
-60 -129 -156 -223 -333 -329 -55 -32 -102 -64 -106 -70 -15 -22 -8 -76 12
-96 38 -38 84 -24 239 77 47 30 113 82 148 116 75 72 82 59 27 -52 -125 -249
-527 -454 -1024 -523 -124 -17 -516 -17 -640 0 -497 69 -899 274 -1024 523
-53 107 -48 121 21 55 291 -285 891 -452 1488 -415 93 6 181 16 195 22 30 14
45 54 36 91 -10 41 -55 55 -146 45 -110 -11 -392 -11 -511 2 -521 53 -952 266
-1085 535 l-39 78 -3 149 c-3 121 -1 149 10 144 7 -3 265 -113 573 -245z
m-1176 -778 c57 -72 -15 -171 -95 -132 -85 40 -59 158 35 158 31 0 44 -6 60
-26z m-1 -320 c13 -8 27 -25 31 -38 5 -12 21 -152 35 -311 14 -160 28 -309 32
-332 l5 -43 -160 0 -161 0 0 38 c2 110 58 639 71 661 29 48 94 59 147 25z"/>
<path d="M3177 1845 c-93 -27 -117 -46 -117 -92 0 -41 30 -73 68 -73 52 0 206
48 225 71 40 50 3 120 -64 118 -19 -1 -69 -11 -112 -24z"/>
</g>
</svg>
